<?xml version="1.0" standalone="no"?>
<!DOCTYPE svg PUBLIC "-//W3C//DTD SVG 20010904//EN"
 "http://www.w3.org/TR/2001/REC-SVG-20010904/DTD/svg10.dtd">
<svg version="1.0" xmlns="http://www.w3.org/2000/svg"
 width="128.000000pt" height="128.000000pt" viewBox="0 0 128.000000 128.000000"
 preserveAspectRatio="xMidYMid meet">
<metadata>
Created by potrace 1.14, written by Peter Selinger 2001-2017
</metadata>
<g transform="translate(0.000000,128.000000) scale(0.100000,-0.100000)"
fill="#000000" stroke="none">
<path d="M898 1205 l-62 -76 -59 2 c-53 2 -62 -1 -80 -22 -18 -22 -26 -24
-131 -25 -148 -2 -139 0 -125 -25 10 -20 9 -120 -2 -158 -3 -12 17 -15 118
-16 115 0 122 -1 141 -24 16 -21 29 -25 81 -26 34 -1 65 -5 70 -11 5 -5 32
-37 60 -71 34 -41 59 -63 73 -63 12 0 71 30 132 67 155 93 166 101 166 127 0
23 -28 56 -46 56 -6 0 -59 -29 -119 -65 -61 -35 -113 -65 -117 -65 -3 0 -30
30 -59 66 -47 59 -52 70 -50 112 1 44 20 76 92 155 18 20 27 16 184 -80 51
-31 67 -34 92 -18 18 12 23 24 21 43 -3 23 -24 40 -138 109 -74 45 -145 83
-157 83 -16 0 -41 -22 -85 -75z"/>
<path d="M115 1154 c-122 -63 -144 -224 -42 -310 42 -35 73 -46 128 -46 197 1
253 281 72 358 -43 19 -121 18 -158 -2z m142 -84 c83 -50 44 -190 -54 -190
-102 0 -150 105 -79 176 40 40 83 45 133 14z"/>
<path d="M173 1030 c-45 -18 -37 -84 13 -96 51 -13 85 54 46 89 -21 19 -27 20
-59 7z"/>
<path d="M352 771 c-37 -31 -92 -51 -144 -51 -43 0 -115 24 -141 48 -19 16
-19 16 -8 -5 6 -12 46 -80 87 -150 191 -320 214 -363 196 -364 -9 0 -60 0
-113 1 -133 2 -133 1 -129 -155 0 -38 6 -75 12 -82 8 -10 101 -13 428 -13 366
0 419 2 430 16 9 9 14 49 15 106 2 125 0 127 -142 124 -59 -1 -115 1 -124 6
-9 4 -49 65 -89 135 -41 70 -86 147 -102 170 -15 23 -28 44 -28 47 0 6 -111
197 -114 196 0 -1 -16 -13 -34 -29z"/>
</g>
</svg>
