<?xml version="1.0" standalone="no"?>
<!DOCTYPE svg PUBLIC "-//W3C//DTD SVG 20010904//EN"
 "http://www.w3.org/TR/2001/REC-SVG-20010904/DTD/svg10.dtd">
<svg version="1.0" xmlns="http://www.w3.org/2000/svg"
 width="512.000000pt" height="512.000000pt" viewBox="0 0 512.000000 512.000000"
 preserveAspectRatio="xMidYMid meet">
<metadata>
Created by potrace 1.14, written by Peter Selinger 2001-2017
</metadata>
<g transform="translate(0.000000,512.000000) scale(0.100000,-0.100000)"
fill="#000000" stroke="none">
<path d="M1805 4791 c-83 -21 -154 -86 -185 -168 -20 -55 -21 -70 -18 -482 3
-417 3 -427 25 -466 31 -58 80 -105 132 -129 41 -18 70 -21 253 -26 113 -3
209 -8 212 -11 3 -3 10 -27 15 -53 5 -26 19 -58 31 -71 l23 -24 268 0 268 0
25 30 c16 19 26 43 26 63 0 60 12 64 240 68 187 3 209 5 246 25 50 27 99 76
127 128 22 39 22 48 22 485 0 439 0 446 -22 485 -31 58 -80 105 -132 129 -45
21 -55 21 -786 23 -407 0 -753 -2 -770 -6z m381 -354 l47 -37 327 0 327 0 47
37 c76 59 166 54 225 -12 54 -62 51 -164 -7 -217 -66 -60 -147 -61 -221 -3
l-44 35 -327 0 -327 0 -48 -37 c-83 -65 -177 -53 -239 30 -25 33 -31 119 -11
157 31 60 84 89 157 86 36 -2 56 -10 94 -39z"/>
<path d="M1310 4460 c-11 -11 -22 -30 -25 -42 -3 -13 -5 -139 -3 -280 3 -292
4 -293 79 -293 31 0 45 6 60 25 17 23 19 45 19 280 0 140 -3 265 -6 278 -7 25
-51 52 -84 52 -11 0 -29 -9 -40 -20z"/>
<path d="M3710 4460 l-25 -19 -3 -264 c-2 -163 1 -274 7 -290 19 -50 89 -59
131 -17 19 19 20 34 20 280 0 281 -5 311 -52 324 -37 9 -51 7 -78 -14z"/>
<path d="M1908 3181 c-112 -36 -201 -107 -253 -202 -55 -102 -54 -95 -55 -874
0 -804 -3 -768 70 -807 33 -17 80 -18 890 -18 955 0 903 -4 942 70 17 33 18
75 18 741 0 465 -4 726 -11 765 -24 129 -111 240 -238 302 l-76 37 -615 2
c-572 2 -619 1 -672 -16z m561 -635 c72 -24 112 -25 176 -4 137 44 248 -17
270 -148 11 -69 -11 -119 -117 -271 -115 -166 -153 -196 -242 -196 -90 -1
-127 29 -244 196 -64 92 -103 158 -108 183 -34 166 105 292 265 240z"/>
<path d="M1295 2869 c-51 -16 -108 -62 -140 -114 l-30 -48 -5 -451 -5 -451
-49 -66 c-80 -108 -99 -164 -100 -294 0 -99 3 -117 28 -180 65 -160 224 -288
358 -290 80 0 87 12 88 143 0 118 -12 152 -62 178 -60 31 -90 77 -90 137 0 57
23 101 71 135 82 58 76 4 79 671 2 584 2 595 -18 616 -22 23 -75 30 -125 14z"/>
<path d="M3703 2863 c-17 -13 -18 -46 -21 -591 -2 -388 0 -589 8 -614 7 -25
29 -52 69 -88 57 -48 70 -73 76 -133 3 -30 -31 -92 -64 -118 -94 -72 -86 -56
-89 -174 -5 -131 -1 -148 39 -168 29 -13 38 -13 83 0 111 32 191 86 259 176
62 82 85 145 94 257 9 122 -25 225 -111 339 l-41 54 -5 451 -5 451 -28 48
c-59 99 -198 157 -264 110z"/>
<path d="M1650 1107 c-45 -23 -50 -48 -50 -264 0 -174 -2 -203 -15 -203 -26 0
-29 -1 -66 -22 -53 -30 -79 -82 -79 -159 0 -85 6 -102 40 -122 25 -15 72 -17
437 -17 224 0 417 3 429 6 34 9 54 55 54 123 0 86 -23 136 -75 167 -24 13 -47
24 -51 23 -32 -5 -33 3 -36 216 -3 208 -4 215 -26 237 -22 23 -27 23 -280 26
-194 2 -263 -1 -282 -11z"/>
<path d="M2930 1107 c-45 -23 -50 -48 -50 -264 0 -198 -1 -203 -20 -203 -12 0
-38 -9 -59 -20 -53 -26 -81 -86 -81 -168 0 -72 13 -106 47 -121 16 -7 154 -11
429 -11 505 0 484 -6 484 139 0 84 -31 141 -90 165 -22 9 -47 16 -55 16 -11 0
-14 37 -17 215 -3 208 -4 215 -26 237 -22 23 -27 23 -280 26 -194 2 -263 -1
-282 -11z"/>
</g>
</svg>
